<?xml version="1.0" encoding="utf-8"?>
<!-- Generator: Adobe Illustrator 24.3.0, SVG Export Plug-In . SVG Version: 6.00 Build 0)  -->
<svg version="1.1" id="Capa_1" xmlns="http://www.w3.org/2000/svg" xmlns:xlink="http://www.w3.org/1999/xlink" x="0px" y="0px"
	 viewBox="0 0 297.4 297.4" style="enable-background:new 0 0 297.4 297.4;" xml:space="preserve">
<style type="text/css">
	.st0{fill:#FFFFFF;}
</style>
<g>
	<path class="st0" d="M265.5,78.1c0-0.1,0-0.3-0.1-0.4c0,0,0-0.1,0-0.1c0-0.2-0.1-0.3-0.1-0.5c0,0,0,0,0-0.1c0-0.2-0.1-0.3-0.2-0.4
		c0,0,0,0,0-0.1c-0.1-0.1-0.1-0.3-0.2-0.4c0,0,0-0.1,0-0.1c-0.1-0.1-0.1-0.2-0.2-0.4c0,0,0-0.1-0.1-0.1c-0.1-0.1-0.1-0.2-0.2-0.3
		c0,0-0.1-0.1-0.1-0.1c-0.1-0.1-0.2-0.2-0.3-0.3c0,0,0,0-0.1-0.1L190.8,1.6v0c-0.1-0.1-0.3-0.2-0.4-0.4c0,0-0.1,0-0.1-0.1
		c-0.1-0.1-0.2-0.2-0.3-0.2c0,0-0.1,0-0.1-0.1c-0.1-0.1-0.2-0.2-0.4-0.2c0,0,0,0-0.1,0c-0.1-0.1-0.3-0.1-0.4-0.2c0,0,0,0,0,0
		c-0.2-0.1-0.3-0.1-0.5-0.2c0,0,0,0,0,0c-0.2,0-0.3-0.1-0.5-0.1c0,0,0,0-0.1,0c-0.2,0-0.3-0.1-0.5-0.1c-0.1,0-0.2,0-0.3,0
		c-0.1,0-0.2,0-0.2,0c0,0,0,0,0,0H37.3c-3,0-5.5,2.5-5.5,5.5v286.4c0,3,2.5,5.5,5.5,5.5h222.8c3,0,5.5-2.5,5.5-5.5V78.7l0,0v0
		c0,0,0,0,0,0C265.6,78.5,265.5,78.3,265.5,78.1z M246.8,73.2l-54.4,0l0-54.4L246.8,73.2z M254.6,286.4H42.8V11h138.6l0,67.7
		c0,1.5,0.6,2.9,1.6,3.9c1,1,2.4,1.6,3.9,1.6l67.7,0V286.4z"/>
	<path class="st0" d="M112,76.8c12.6,0,22.8-10.2,22.8-22.8S124.6,31.2,112,31.2c-12.6,0-22.8,10.2-22.8,22.8
		C89.2,66.6,99.5,76.8,112,76.8z M112,42.1c6.5,0,11.8,5.3,11.8,11.8c0,6.5-5.3,11.8-11.8,11.8c-6.5,0-11.8-5.3-11.8-11.8
		C100.2,47.5,105.5,42.1,112,42.1z"/>
	<path class="st0" d="M86.5,118.5c3,0,5.5-2.5,5.5-5.5v-9.6c0-6.2,5.1-11.3,11.3-11.3h17.6c6.2,0,11.3,5.1,11.3,11.3v9.6
		c0,3,2.5,5.5,5.5,5.5s5.5-2.5,5.5-5.5v-9.6c0-12.3-10-22.3-22.3-22.3h-17.6c-12.3,0-22.3,10-22.3,22.3v9.6
		C81.1,116,83.5,118.5,86.5,118.5z"/>
	<path class="st0" d="M81.1,157.2c0,3,2.5,5.5,5.5,5.5h124.3c3,0,5.5-2.5,5.5-5.5c0-3-2.5-5.5-5.5-5.5H86.5
		C83.5,151.7,81.1,154.2,81.1,157.2z"/>
	<path class="st0" d="M210.8,232.9H86.5c-3,0-5.5,2.5-5.5,5.5s2.5,5.5,5.5,5.5h124.3c3,0,5.5-2.5,5.5-5.5
		C216.3,235.4,213.9,232.9,210.8,232.9z"/>
	<path class="st0" d="M210.8,192.3H86.5c-3,0-5.5,2.5-5.5,5.5s2.5,5.5,5.5,5.5h124.3c3,0,5.5-2.5,5.5-5.5
		C216.3,194.8,213.9,192.3,210.8,192.3z"/>
</g>
</svg>
