<svg id="Layer_1" data-name="Layer 1" xmlns="http://www.w3.org/2000/svg" viewBox="0 0 600 600"><defs><style>.cls-1{fill:#fff;}.cls-2{fill:none;stroke:#231f20;stroke-linecap:round;stroke-miterlimit:10;}</style></defs><title>home_icon</title><path class="cls-1" d="M300,26A274.07914,274.07914,0,0,1,406.64514,552.47845,274.07771,274.07771,0,0,1,193.35486,47.52157,272.25927,272.25927,0,0,1,300,26m0-26C134.31458,0,0,134.31458,0,300S134.31458,600,300,600,600,465.68542,600,300,465.68542,0,300,0Z"/><path class="cls-2" d="M192.11667,503.48935c-.21.01-.41.01-.62.01"/><path class="cls-1" d="M461.87891,186.10254c52.6289,32.86523,72.46484,89.0249,78.55078,111.645,29.9541,111.32959-50.84766,204.56689-54.30176,208.48193-2.68579,3.04358-5.4668,5.9834-8.30164,8.86365,1.92939.78613,3.83905,1.64447,5.73761,2.54333q3.431-2.1187,7.06354-3.89233a82.8236,82.8236,0,0,1,25.52606-13.532,85.71419,85.71419,0,0,1,8.23987-3.78284c25.47473-38.94031,63.98548-116.69147,40.17792-205.17682-6.85449-25.47607-29.291-88.78711-89.4502-126.355l-1.03418-.647c-12.73242-7.97461-42.56054-26.64453-85.43359-24.95361l-.47461.01855c-43.084,1.68994-72.74707,14.604-88.1665,38.3833a72.30466,72.30466,0,0,0-9.68311,22.95264Q295.66461,211.82565,301,223a98.96574,98.96574,0,0,1,19.98828-31.69922c4.297-4.57361,11.8031-13.90851,25.17871-19.207q17.08229-6.76685,42.99121-7.79736l.4834-.019c35.17969-1.38232,59.48731,13.84034,71.17481,21.16065Z"/><path class="cls-1" d="M301.45575,175.13989c-15.85175-22.85052-44.35071-35.243-84.75458-36.843a143.56333,143.56333,0,0,0-56.43652,9.374,179.0694,179.0694,0,0,0-32.6792,16.51367C67.42822,201.751,44.99072,265.0625,38.13574,290.53955,7.30768,405.118,80.97583,501.71442,95.51929,519.32837A109.36058,109.36058,0,0,1,117.996,525.4007a82.59225,82.59225,0,0,1,14.80268-3.29059A228.01126,228.01126,0,0,1,116.5791,505.5166c-3.4541-3.915-84.25586-97.15234-54.30176-208.48193,6.08594-22.62061,25.92383-78.78125,78.5503-111.645,10.32763-6.4502,37.75976-23.59082,74.88476-22.11231,32.89209,1.30225,55.09961,10.49121,66.00586,27.31055.58087.89575,15.481,26.90265,19.28174,32.41211q5.689-11.53125,11.37793-23.0625C310.42773,191.61035,301.87756,175.748,301.45575,175.13989Z"/><path class="cls-1" d="M298.17528,301.30663"/><path d="M298.17528,302.80663a1.5009,1.5009,0,0,0,0-3,1.5009,1.5009,0,0,0,0,3Z"/><path class="cls-1" d="M203.07072,399.61653c-9.98834,5.03963-18.52069,5.68688-20.18491,2.97224-1.63625-2.669,2.66314-9.73542,11.00686-16.19407.3976-.27486.99629-.68973,1.72043-1.19624,5.52028-3.86122,11.09129-7.982,16.58637-12.26916,5.8008-4.52566,11.70353-9.38236,17.54429-14.43527,10.89957-9.42938,21.77717-19.67312,33.25441-31.31644,9.84-9.98243,20.11913-21.00279,31.42489-33.69089,10.6942-12.00181,21.33917-24.41888,30.34171-34.98243,7.24468-8.50089,13.7429-16.19186,19.90446-24.2322,4.93519-6.44,9.15987-12.48606,12.78634-18.30608-14.61229,2.50746-29.26428,5.53-43.66564,9.00963-17.10636,4.13324-34.26887,9.01039-51.01076,14.496s-33.46283,11.71038-49.69828,18.50171c-10.332,4.32191-23.73078,10.23993-48.06186,22.40081C111.95924,306.89383,83.93222,324.614,82.72334,322.733c-.76383-1.18851,9.81476-9.21369,29.99929-24.52615,22.27679-16.89971,33.0481-26.01414,44.91774-32.137,16.00289-8.255,32.56606-15.97481,49.2294-22.94511,16.62755-6.95528,33.75207-13.33042,50.89788-18.94834s34.72262-10.61271,52.24211-14.84578c17.55721-4.24215,35.47729-7.82084,53.26233-10.63661a17.67054,17.67054,0,0,1,4.75876-.18127,11.898,11.898,0,0,1,3.63334.99935,10.5921,10.5921,0,0,1,3.83544,2.97686,10.98067,10.98067,0,0,1,2.13624,9.166,17.17026,17.17026,0,0,1-1.95219,5.08621,225.25072,225.25072,0,0,1-18.2391,27.32107c-6.39662,8.347-13.03672,16.207-20.42968,24.88187-9.05949,10.63041-19.77674,23.13158-30.575,35.25021-10.1341,11.37313-19.46852,21.43983-28.41477,30.64112q12.41136-6.6342,24.97712-12.81815c6.59368-3.24437,15.32766-7.4439,24.416-11.15192a186.62113,186.62113,0,0,1,25.98844-8.62572,22.73738,22.73738,0,0,1,6.44885-.7714,13.01219,13.01219,0,0,1,9.07961,3.87989,12.46744,12.46744,0,0,1,2.60063,4.02093,14.41951,14.41951,0,0,1,.94213,3.81681,22.64775,22.64775,0,0,1-.185,5.62686,99.49082,99.49082,0,0,1-3.8885,16.73092q-1.23408,3.78924-2.77226,7.47851.10138.00513.20414.00939a43.21683,43.21683,0,0,0,10.005-1.112c6.68881-1.39261,13.98141-3.30406,22.2945-5.84357,7.50506-2.2927,15.14973-4.88048,22.54263-7.38309,13.77683-4.66364,28.02283-9.48606,42.35415-12.75682a169.31424,169.31424,0,0,1,22.05866-3.63222c3.82674-.35756,7.63167-.55332,11.30917-.58172,3.87707-.02977,7.745.12472,11.49809.45987,0,0-15.64512,1.59148-.67625,7.57307s-.75533,8.45835-.75533,8.45835a108.14667,108.14667,0,0,0-19.87833.11583,153.44371,153.44371,0,0,0-19.97477,3.29858c-6.04689,1.38-12.661,3.19279-20.22036,5.542-6.8239,2.12059-13.804,4.48342-20.55427,6.76847-15.13622,5.12382-30.78766,10.422-46.71724,13.73858-2.45181.51048-4.62711.8749-6.65013,1.11406a45.73874,45.73874,0,0,1-7.298.32224,31.28167,31.28167,0,0,1-7.75639-1.25588,24.60736,24.60736,0,0,1-7.65191-3.83276l-5.5192-4.12991,3.23322-6.088a83.35835,83.35835,0,0,0,8.63309-25.6522,173.09007,173.09007,0,0,0-22.61418,7.61361c-8.62664,3.5196-17.03167,7.56227-23.3903,10.691-26.467,13.023-39.28333,20.36049-54.7015,29.54179C242.92817,373.43148,224.84577,384.61111,203.07072,399.61653Z"/><path class="cls-1" d="M146.843,479.86535"/></svg>