<svg id="Layer_1" data-name="Layer 1" xmlns="http://www.w3.org/2000/svg" viewBox="0 0 600 600"><defs><style>.cls-1{fill:#fff;}.cls-2{fill:none;stroke:#231f20;stroke-linecap:round;stroke-miterlimit:10;}</style></defs><title>info_icon</title><path class="cls-1" d="M300,26A274.07914,274.07914,0,0,1,406.64514,552.47845,274.07771,274.07771,0,0,1,193.35486,47.52157,272.25927,272.25927,0,0,1,300,26m0-26C134.31458,0,0,134.31458,0,300S134.31458,600,300,600,600,465.68542,600,300,465.68542,0,300,0Z"/><path class="cls-2" d="M192.11667,503.48935c-.21.01-.41.01-.62.01"/><path class="cls-1" d="M513.877,217.292q0,32.3379-24.78515,57.48926-24.78808,25.15429-66.334,39.10937-41.54883,13.96-89.70117,13.958-10.86621,0-16.52344-.55273L302.8418,408.002H250.90869l-12.74756-132.3916a343.57851,343.57851,0,0,0,52.40528,3.59375q61.84276,0,92.29882-19.624,30.45119-19.62159,30.45118-47.81592,0-31.78052-33.51953-49.05957-33.53028-17.26977-80.73243-17.27441-56.18921,0-86.6333,18.9331-30.4519,18.93458-30.45166,54.58692v10.77929H87.55664q-.95214-2.209-.94434-15.7539,0-42.00952,31.39551-68.26905,31.39234-26.25439,80.25977-37.58886a436.4736,436.4736,0,0,1,98.9082-11.332q103.39454,0,160.04688,32.33741Q513.877,161.46093,513.877,217.292ZM214.0835,520.2168V446.69629H338.72266V520.2168Z"/></svg>