<svg id="Layer_1" data-name="Layer 1" xmlns="http://www.w3.org/2000/svg" viewBox="0 0 600 600"><defs><style>.cls-1{fill:#fff;}.cls-2{fill:none;stroke:#231f20;stroke-linecap:round;stroke-miterlimit:10;}</style></defs><title>info_icon_2</title><path class="cls-1" d="M300,26A274.07914,274.07914,0,0,1,406.64514,552.47845,274.07771,274.07771,0,0,1,193.35486,47.52157,272.25927,272.25927,0,0,1,300,26m0-26C134.31458,0,0,134.31458,0,300S134.31458,600,300,600,600,465.68542,600,300,465.68542,0,300,0Z"/><path class="cls-2" d="M192.11667,503.48935c-.21.01-.41.01-.62.01"/><path class="cls-1" d="M272.79932,421.03418q-.80567-34.19678,6-62.19238,6.78808-27.98584,37.99951-53.48438,17.58984-14.2998,36.80078-27.98633,19.20117-13.67284,35.19922-27.67529a175.15205,175.15205,0,0,0,26.80078-28.91943A54.05209,54.05209,0,0,0,426.40039,188.437a61.88889,61.88889,0,0,0-8.42578-31.40674q-8.4375-14.60521-24.48828-25.49853-16.04883-10.87427-39.32422-17.103-23.28808-6.20947-52.96289-6.21924-29.69972,0-52.97461,8.085-23.28735,8.09034-38.92529,22.38916a94.6476,94.6476,0,0,0-23.67481,33.27246,96.0183,96.0183,0,0,0-7.2251,41.35743h-48q-3.2058-31.09057,8.8003-56.59424,12-25.49415,35.59961-43.84522Q198.387,94.53711,231.19971,84.57666q32.79345-9.94043,71.99951-9.95068,40.80176,0,73.20117,8.396,32.39941,8.39576,54.79883,23.63282,22.38867,15.24682,34.40039,37.00439a97.55333,97.55333,0,0,1,12,47.88721q0,27.37426-15.59961,46.95459a206.7782,206.7782,0,0,1-38,36.38232q-22.40625,16.79151-46.40039,33.894A219.55619,219.55619,0,0,0,336,347.02539q-13.61425,16.18066-15.20117,35.76074-1.61133,19.58936-1.59961,38.248Zm-4.79981,113.18848V479.49414h58.40088v54.72852Z"/></svg>