<svg id="Layer_1" data-name="Layer 1" xmlns="http://www.w3.org/2000/svg" viewBox="0 0 600 600"><defs><style>.cls-1{fill:#fff;}.cls-2{fill:none;stroke:#231f20;stroke-linecap:round;stroke-miterlimit:10;}</style></defs><title>random_icon</title><path class="cls-1" d="M300,26A274.07914,274.07914,0,0,1,406.64514,552.47845,274.07771,274.07771,0,0,1,193.35486,47.52157,272.25927,272.25927,0,0,1,300,26m0-26C134.31458,0,0,134.31458,0,300S134.31458,600,300,600,600,465.68542,600,300,465.68542,0,300,0Z"/><path class="cls-2" d="M192.11667,503.48935c-.21.01-.41.01-.62.01"/><path class="cls-1" d="M405.5,196.5c-36.27,0-65.66,45.98-65.99,103-.01.33-.01.67-.01,1,0,37.87-9.31,73.02-25.27,102.13a180.66115,180.66115,0,0,1-14.87,22.9c-26.78,35.09-64.73,56.97-106.86,56.97h-80v-80h80c36.82,0,66.65-45.97,66.99-103,.01-.33.01-.67.01-1,0-37.84,9.24-72.97,25.07-102.06a180.31917,180.31917,0,0,1,14.79-22.97c26.61-35.09,64.3-56.97,106.14-56.97h2v-56l1.82,1.61,61.02,54.33,18.44,16.42,25.39,22.6-25.39,22.6-20.64,18.38L407.5,250.42V196.5h-2Z"/><polygon class="cls-1" points="470.34 116.44 409.32 62.11 514.5 155.5 407.5 250.5 407.5 250.42 468.14 196.44 488.78 178.06 514.17 155.46 488.78 132.86 470.34 116.44"/><rect class="cls-1" x="405.55" y="116.44" width="1.91" height="0.06"/><path class="cls-1" d="M192.12,116.5h.38c35.16,0,67.41,15.24,92.68,40.68a205.02367,205.02367,0,0,0-25.11,39.26,224.59472,224.59472,0,0,0-14.97,39.59c-12.27-24.09-31.26-39.53-52.6-39.53h-80v-80Z"/><path class="cls-1" d="M352.83,361.21a223.63987,223.63987,0,0,1-15.21,41.42,203.57165,203.57165,0,0,1-24.49,38.87c25.15,25.63,57.31,41,92.37,41h5v54l.3-.26,106.53-94.58.17-.16-2.84-2.53L410.79,346.76l-.29-.26v56h-5C383.97,402.5,364.87,386.3,352.83,361.21Z"/></svg>