<svg id="Layer_1" data-name="Layer 1" xmlns="http://www.w3.org/2000/svg" viewBox="0 0 13201.63159 6302.10876"><defs><style>.cls-1{fill:#1a1a1a;}</style></defs><title>signature</title><path d="M6600.52742,3152.86223a1.5009,1.5009,0,0,0,0-3,1.5009,1.5009,0,0,0,0,3Z" transform="translate(0)"/><path class="cls-1" d="M3687.45229,6162.61743c-305.94531,154.3653-567.293,174.19049-618.26856,91.04053-50.11865-81.75234,81.57276-298.19824,337.14258-496.02832,12.17871-8.41894,30.5166-21.12646,52.69727-36.64111,169.0874-118.27,339.729-244.49121,508.04443-375.80713,177.67993-138.62207,358.48194-287.38379,537.38574-442.15576,333.85645-288.82422,667.04-602.59229,1018.59034-959.23,301.40185-305.76416,616.2539-643.32032,962.55175-1031.96,327.56592-367.61817,653.624-747.95606,929.374-1071.52,221.90625-260.38428,420.94824-495.96045,609.67822-742.2378,151.166-197.25976,280.56885-382.45117,391.64844-560.71972-447.57764,76.8042-896.37158,169.38476-1337.48877,275.96728-523.97168,126.60205-1049.66358,275.99024-1562.47168,444.01416-512.81006,168.02393-1024.97412,358.6919-1522.27,566.71192-316.47119,132.38086-726.8794,313.65136-1472.146,686.14209C896.68618,3322.49951,38.21206,3865.27344,1.18373,3807.658-22.21275,3771.25342,301.81215,3525.44043,920.069,3056.416c682.34326-517.64209,1012.271-796.81934,1375.84082-984.3645,490.17236-252.852,997.50635-489.312,1507.9082-702.814,509.30591-213.042,1033.834-408.314,1559.01416-580.39209,525.18164-172.07617,1063.562-325.06982,1600.188-454.73,537.78174-129.938,1086.67774-239.5542,1631.438-325.80176,35.0332-5.54638,88.26465-12.15625,145.76172-5.55224,39.69238,4.56006,77.13574,14.85791,111.29,30.61035a324.436,324.436,0,0,1,117.48047,91.18164c62.3916,77.146,85.63183,176.854,65.43359,280.75586-9.73438,50.07617-29.29395,101.03613-59.7959,155.792-148.05176,265.7583-330.79394,539.49219-558.668,836.85059-195.93017,255.67187-399.31787,496.42383-625.76611,762.13769-277.49414,325.61182-605.76611,708.52588-936.52,1079.72217-310.40967,348.36182-596.3252,656.707-870.35107,938.54492q380.16284-203.20752,765.05517-392.623c201.96582-99.376,469.48975-228.00831,747.86768-341.58594,283.88232-115.82422,544.26611-202.2461,796.03222-264.208,75.42237-18.5625,138.19239-26.07227,197.52979-23.62793,140.47461,5.77979,228.77246,67.81787,278.11035,118.8418a381.88487,381.88487,0,0,1,79.6582,123.16211c14.56153,36.062,24.27149,75.396,28.85742,116.90966,7.39454,66.91407.3086,130.41211-5.666,172.35206a3047.42518,3047.42518,0,0,1-119.10547,512.47216q-37.80028,116.06544-84.915,229.06836,3.10547.15747,6.25293.2876c106.90527,4.40576,226.09668-17.33008,306.4541-34.062,204.87989-42.65576,428.25391-101.2041,682.88574-178.98975,229.88184-70.22607,464.04-149.49023,690.48633-226.146,421.98731-142.84815,858.34571-290.56006,1297.31739-390.74414,240.25586-54.832,461.26855-91.22413,675.66211-111.25586,117.21386-10.95215,233.75976-16.94825,346.40234-17.81836,118.75586-.91162,237.23144,3.82031,352.18945,14.08593,0,0-479.21387,48.74756-20.71387,231.96509s-23.13574,259.0813-23.13574,259.0813c-196.43359-17.54053-395.59961-16.38037-608.87793,3.54785-192.69238,18.00391-392.82617,51.0542-611.832,101.03614-185.21777,42.27-387.80957,97.79589-619.35449,169.752-209.01758,64.9541-422.81934,137.32812-629.582,207.31982-463.626,156.94385-943.0332,319.23-1430.96,420.81592-75.09961,15.63623-141.72949,26.79834-203.69532,34.124-80.53808,9.52-153.65625,12.74659-223.53808,9.87012-84.82422-3.49414-164.7583-16.438-237.58008-38.46777-86.31787-26.11231-165.17432-65.61231-234.37988-117.39844l-169.0542-126.5,99.03418-186.47754a2553.29136,2553.29136,0,0,0,264.43359-785.73291c-217.563,55.53516-444.57422,131.98-692.67773,233.20654-264.23584,107.80616-521.68408,231.63428-716.4502,327.46827-810.6914,398.89782-1203.25781,623.64672-1675.52,904.87207C4908.29531,5360.5633,4354.42714,5702.99811,3687.45229,6162.61743Z" transform="translate(0)"/><path d="M1965.18373,8620.658" transform="translate(0)"/></svg>