<svg id="Layer_1" data-name="Layer 1" xmlns="http://www.w3.org/2000/svg" viewBox="0 0 13201.63 6302.11"><defs><style>.cls-1{fill:#fff;}</style></defs><path d="M6600.53,3152.86a1.5,1.5,0,0,0,0-3,1.5,1.5,0,0,0,0,3Z" transform="translate(0 0)"/><path class="cls-1" d="M3687.45,6162.62c-305.94,154.36-567.29,174.19-618.27,91-50.11-81.75,81.58-298.2,337.15-496,12.18-8.42,30.51-21.13,52.69-36.64,169.09-118.27,339.73-244.49,508.05-375.81,177.68-138.62,358.48-287.38,537.38-442.15,333.86-288.83,667-602.6,1018.59-959.23,301.41-305.77,616.26-643.32,962.56-1032,327.56-367.62,653.62-748,929.37-1071.52,221.91-260.39,420.95-496,609.68-742.24,151.16-197.26,280.57-382.45,391.65-560.72-447.58,76.8-896.38,169.38-1337.49,276-524,126.6-1049.67,276-1562.47,444s-1025,358.69-1522.27,566.71c-316.48,132.38-726.88,313.65-1472.15,686.14C896.69,3322.5,38.21,3865.27,1.18,3807.66c-23.39-36.41,300.63-282.22,918.89-751.24,682.34-517.65,1012.27-796.82,1375.84-984.37,490.17-252.85,997.51-489.31,1507.91-702.81,509.3-213,1033.83-408.32,1559-580.39S6426.39,463.78,6963,334.12C7500.8,204.18,8049.7,94.56,8594.46,8.31c35-5.54,88.26-12.15,145.76-5.55,39.69,4.56,77.14,14.86,111.29,30.61A324.55,324.55,0,0,1,8969,124.55c62.39,77.15,85.63,176.86,65.43,280.76-9.73,50.08-29.29,101-59.79,155.79-148,265.76-330.8,539.49-558.67,836.85-195.93,255.67-399.32,496.43-625.77,762.14-277.49,325.61-605.76,708.53-936.52,1079.72-310.41,348.36-596.32,656.71-870.35,938.55q380.16-203.2,765.06-392.63c202-99.37,469.49-228,747.87-341.58,283.88-115.83,544.26-202.25,796-264.21,75.42-18.56,138.19-26.07,197.53-23.63,140.47,5.78,228.77,67.82,278.11,118.84a382,382,0,0,1,79.66,123.17c14.56,36.06,24.27,75.39,28.85,116.91,7.4,66.91.31,130.41-5.66,172.35a3047.23,3047.23,0,0,1-119.11,512.47q-37.8,116.07-84.91,229.07l6.25.29c106.91,4.4,226.1-17.33,306.45-34.07,204.88-42.65,428.26-101.2,682.89-179,229.88-70.22,464-149.49,690.49-226.14,422-142.85,858.34-290.56,1297.31-390.75,240.26-54.83,461.27-91.22,675.67-111.25,117.21-10.95,233.76-16.95,346.4-17.82,118.75-.91,237.23,3.82,352.19,14.09,0,0-479.22,48.74-20.72,232s-23.13,259.08-23.13,259.08c-196.44-17.54-395.6-16.38-608.88,3.55-192.69,18-392.83,51-611.83,101-185.22,42.27-387.81,97.79-619.36,169.75-209,65-422.82,137.33-629.58,207.32-463.62,156.94-943,319.23-1431,420.81-75.1,15.64-141.73,26.8-203.69,34.13-80.54,9.52-153.66,12.74-223.54,9.87-84.83-3.5-164.76-16.44-237.58-38.47-86.32-26.11-165.18-65.61-234.38-117.4l-169.06-126.5,99-186.48a2553.4,2553.4,0,0,0,264.43-785.73c-217.56,55.54-444.57,132-692.68,233.21-264.23,107.8-521.68,231.63-716.45,327.47C6155.34,4627,5762.78,4851.73,5290.51,5133,4908.3,5360.56,4354.43,5703,3687.45,6162.62Z" transform="translate(0 0)"/><path d="M1965.18,8620.66" transform="translate(0 0)"/></svg>